# xmcd CD database file
#
# Track frame offsets:
#	150
#	23772
#	42477
#	54191
#	70245
#	88507
#	106808
#	117680
#	152471
#
# Disc length: 2259 seconds
#
# Revision: 0
# Processed by: cddbd v1.4PL0 Copyright (c) Steve Scherf et al.
# Submitted via: CDex 1.50
#
DISCID=6b08d109
DTITLE=Guy Bergeron - Acoutic Jazz
DYEAR=2003
DGENRE=Jazz
TTITLE0=Expressive dance
TTITLE1=Roux d'automne
TTITLE2=Ad lib lovers
TTITLE3=Contexte
TTITLE4=Quebec
TTITLE5=Variaciòn
TTITLE6=Lynn's blues
TTITLE7=On verra
TTITLE8=Bonus Track
EXTD=YEAR: 2003
EXTT0=
EXTT1=
EXTT2=
EXTT3=
EXTT4=
EXTT5=
EXTT6=
EXTT7=
EXTT8=
PLAYORDER=
